<?xml version="1.0" encoding="UTF-8" standalone="no"?><svg xmlns="http://www.w3.org/2000/svg" xmlns:xlink="http://www.w3.org/1999/xlink" contentScriptType="text/ecmascript" fill="#000000" width="305" zoomAndPan="magnify" contentStyleType="text/css" viewBox="0.0 0.0 305.0 78.0" height="78" preserveAspectRatio="xMidYMid meet" version="1"><g id="change1_4"><path d="M5.5,7h299c0.3,0,0.5,0.2,0.5,0.5S304.8,8,304.5,8H5.5"/></g><g id="change1_5"><circle r="7" cx="108" cy="7"/></g><g id="change1_6"><path d="M2,10c-1.1,0-2-0.9-2-2c0,0,0,0,0,0c0-1.1,0.9-2,2-2l106.5-1c0,0,0,0,0,0c1.1,0,2,0.9,2,2c0,0,0,0,0,0c0,1.1-0.9,2-2,2L2,10 C2,10,2,10,2,10z"/></g><g id="change1_7"><circle r="25" cx="155" cy="53"/></g><g id="change1_1"><path d="M76.7 40.7L76.1 64.6 55.7 52.1z"/></g><g id="change1_2"><path d="M55.2 40.5L55.2 64"/><path d="M55.2,65c-0.6,0-1-0.4-1-1V40.5c0-0.6,0.4-1,1-1s1,0.4,1,1V64C56.2,64.6,55.8,65,55.2,65z"/></g><g id="change1_3"><path d="M233 40.7L233.6 64.6 254 52.1z"/></g><g id="change1_8"><path d="M254.5 40.5L254.5 64"/><path d="M254.5,65c-0.6,0-1-0.4-1-1V40.5c0-0.6,0.4-1,1-1s1,0.4,1,1V64C255.5,64.6,255,65,254.5,65z"/></g><g id="change2_1"><path fill="#ffffff" d="M150,65h-3V41.5h3V65z M163,41.5h-3V65h3V41.5z"/></g></svg>